<mxfile host="app.diagrams.net" agent="Mozilla/5.0 (Windows NT 10.0; Win64; x64) AppleWebKit/537.36 (KHTML, like Gecko) Chrome/138.0.0.0 Safari/537.36" version="28.1.0">
  <diagram name="Page-1" id="lSzi0G3Rm2PnMdEsVkfz">
    <mxGraphModel dx="786" dy="435" grid="1" gridSize="10" guides="1" tooltips="1" connect="1" arrows="1" fold="1" page="1" pageScale="1" pageWidth="827" pageHeight="1169" math="0" shadow="0">
      <root>
        <mxCell id="0" />
        <mxCell id="1" parent="0" />
        <mxCell id="LHeQVUSA6WrY6qABVjKm-11" style="edgeStyle=orthogonalEdgeStyle;rounded=0;orthogonalLoop=1;jettySize=auto;html=1;entryX=0.5;entryY=0;entryDx=0;entryDy=0;" edge="1" parent="1" source="LHeQVUSA6WrY6qABVjKm-3" target="LHeQVUSA6WrY6qABVjKm-8">
          <mxGeometry relative="1" as="geometry" />
        </mxCell>
        <mxCell id="LHeQVUSA6WrY6qABVjKm-3" value="UI&lt;div&gt;&lt;span style=&quot;font-size:11.0pt;line-height:&amp;lt;br/&amp;gt;107%;font-family:&amp;quot;Calibri&amp;quot;,sans-serif;mso-ascii-theme-font:minor-latin;&amp;lt;br/&amp;gt;mso-fareast-font-family:Calibri;mso-fareast-theme-font:minor-latin;mso-hansi-theme-font:&amp;lt;br/&amp;gt;minor-latin;mso-bidi-font-family:&amp;quot;Times New Roman&amp;quot;;mso-bidi-theme-font:minor-bidi;&amp;lt;br/&amp;gt;mso-ansi-language:EN-US;mso-fareast-language:EN-US;mso-bidi-language:AR-SA&quot; lang=&quot;EN-US&quot;&gt;1. Bowl portion mass&amp;nbsp;&lt;/span&gt;&lt;/div&gt;&lt;div&gt;&lt;span style=&quot;font-size:11.0pt;line-height:&amp;lt;br/&amp;gt;107%;font-family:&amp;quot;Calibri&amp;quot;,sans-serif;mso-ascii-theme-font:minor-latin;&amp;lt;br/&amp;gt;mso-fareast-font-family:Calibri;mso-fareast-theme-font:minor-latin;mso-hansi-theme-font:&amp;lt;br/&amp;gt;minor-latin;mso-bidi-font-family:&amp;quot;Times New Roman&amp;quot;;mso-bidi-theme-font:minor-bidi;&amp;lt;br/&amp;gt;mso-ansi-language:EN-US;mso-fareast-language:EN-US;mso-bidi-language:AR-SA&quot; lang=&quot;EN-US&quot;&gt;2. Feeding times&lt;/span&gt;&lt;/div&gt;&lt;div&gt;&lt;span style=&quot;font-size:11.0pt;line-height:&amp;lt;br/&amp;gt;107%;font-family:&amp;quot;Calibri&amp;quot;,sans-serif;mso-ascii-theme-font:minor-latin;&amp;lt;br/&amp;gt;mso-fareast-font-family:Calibri;mso-fareast-theme-font:minor-latin;mso-hansi-theme-font:&amp;lt;br/&amp;gt;minor-latin;mso-bidi-font-family:&amp;quot;Times New Roman&amp;quot;;mso-bidi-theme-font:minor-bidi;&amp;lt;br/&amp;gt;mso-ansi-language:EN-US;mso-fareast-language:EN-US;mso-bidi-language:AR-SA&quot; lang=&quot;EN-US&quot;&gt;&amp;nbsp;3. Real time clock&lt;/span&gt;&lt;/div&gt;" style="rounded=0;whiteSpace=wrap;html=1;" vertex="1" parent="1">
          <mxGeometry x="330" y="20" width="140" height="110" as="geometry" />
        </mxCell>
        <mxCell id="LHeQVUSA6WrY6qABVjKm-5" style="edgeStyle=orthogonalEdgeStyle;rounded=0;orthogonalLoop=1;jettySize=auto;html=1;exitX=0.25;exitY=0;exitDx=0;exitDy=0;entryX=0.5;entryY=0;entryDx=0;entryDy=0;" edge="1" parent="1">
          <mxGeometry relative="1" as="geometry">
            <mxPoint x="384" y="200" as="sourcePoint" />
            <mxPoint x="414" y="200" as="targetPoint" />
          </mxGeometry>
        </mxCell>
        <mxCell id="LHeQVUSA6WrY6qABVjKm-18" style="edgeStyle=orthogonalEdgeStyle;rounded=0;orthogonalLoop=1;jettySize=auto;html=1;entryX=0;entryY=0.5;entryDx=0;entryDy=0;" edge="1" parent="1" source="LHeQVUSA6WrY6qABVjKm-8" target="LHeQVUSA6WrY6qABVjKm-16">
          <mxGeometry relative="1" as="geometry">
            <Array as="points">
              <mxPoint x="525" y="240" />
              <mxPoint x="525" y="260" />
            </Array>
          </mxGeometry>
        </mxCell>
        <mxCell id="LHeQVUSA6WrY6qABVjKm-19" style="edgeStyle=orthogonalEdgeStyle;rounded=0;orthogonalLoop=1;jettySize=auto;html=1;entryX=0;entryY=0.5;entryDx=0;entryDy=0;" edge="1" parent="1" source="LHeQVUSA6WrY6qABVjKm-8" target="LHeQVUSA6WrY6qABVjKm-15">
          <mxGeometry relative="1" as="geometry">
            <Array as="points">
              <mxPoint x="525" y="200" />
              <mxPoint x="525" y="160" />
            </Array>
          </mxGeometry>
        </mxCell>
        <mxCell id="LHeQVUSA6WrY6qABVjKm-8" value="" style="rounded=0;whiteSpace=wrap;html=1;" vertex="1" parent="1">
          <mxGeometry x="340" y="190" width="120" height="60" as="geometry" />
        </mxCell>
        <mxCell id="LHeQVUSA6WrY6qABVjKm-13" style="edgeStyle=orthogonalEdgeStyle;rounded=0;orthogonalLoop=1;jettySize=auto;html=1;entryX=0;entryY=0.5;entryDx=0;entryDy=0;" edge="1" parent="1" source="LHeQVUSA6WrY6qABVjKm-9" target="LHeQVUSA6WrY6qABVjKm-8">
          <mxGeometry relative="1" as="geometry" />
        </mxCell>
        <mxCell id="LHeQVUSA6WrY6qABVjKm-9" value="Food Bin Mass sensor" style="rounded=0;whiteSpace=wrap;html=1;" vertex="1" parent="1">
          <mxGeometry x="110" y="190" width="120" height="60" as="geometry" />
        </mxCell>
        <mxCell id="LHeQVUSA6WrY6qABVjKm-14" style="edgeStyle=orthogonalEdgeStyle;rounded=0;orthogonalLoop=1;jettySize=auto;html=1;entryX=0.5;entryY=1;entryDx=0;entryDy=0;" edge="1" parent="1" source="LHeQVUSA6WrY6qABVjKm-10" target="LHeQVUSA6WrY6qABVjKm-8">
          <mxGeometry relative="1" as="geometry" />
        </mxCell>
        <mxCell id="LHeQVUSA6WrY6qABVjKm-10" value="Bowl Mass sensor" style="rounded=0;whiteSpace=wrap;html=1;" vertex="1" parent="1">
          <mxGeometry x="340" y="300" width="120" height="60" as="geometry" />
        </mxCell>
        <mxCell id="LHeQVUSA6WrY6qABVjKm-15" value="Feeding Servo motor" style="rounded=0;whiteSpace=wrap;html=1;" vertex="1" parent="1">
          <mxGeometry x="590" y="130" width="120" height="60" as="geometry" />
        </mxCell>
        <mxCell id="LHeQVUSA6WrY6qABVjKm-16" value="User warning light" style="rounded=0;whiteSpace=wrap;html=1;" vertex="1" parent="1">
          <mxGeometry x="590" y="230" width="120" height="60" as="geometry" />
        </mxCell>
      </root>
    </mxGraphModel>
  </diagram>
</mxfile>
